<svg height="512pt" viewBox="0 -31 512.00225 512" width="512pt" xmlns="http://www.w3.org/2000/svg"><path d="m504.464844 435.542969h-137.226563l32.808594-107.113281c.699219-2.285157.273437-4.765626-1.144531-6.6875-1.421875-1.921876-3.667969-3.054688-6.058594-3.054688h-21.316406l25.371094-29.039062c.007812-.007813.015624-.015626.023437-.023438l28.371094-32.46875c2.738281-3.132812 2.417969-7.890625-.71875-10.628906-3.128907-2.738282-7.890625-2.417969-10.628907.714844l-20.253906 23.175781-24.9375-64.320313 112.304688-35.660156-47.503906 54.359375c-2.738282 3.132813-2.414063 7.894531.71875 10.632813 1.425781 1.25 3.195312 1.863281 4.953124 1.863281 2.097657 0 4.1875-.875 5.675782-2.578125l65.238281-74.65625c2.222656-2.546875 2.480469-6.261719.628906-9.089844-1.851562-2.824219-5.363281-4.074219-8.582031-3.050781l-212.695312 67.539062 5.074218-39.753906c0-.007813.003906-.019531.003906-.027344l.003907-.023437c.003906-.023438 0-.042969.003906-.066406.03125-.246094.046875-.496094.050781-.746094 0-.070313-.003906-.140625-.003906-.210938 0-.203125-.007812-.40625-.027344-.609375-.007812-.082031-.015625-.160156-.027344-.242187-.023437-.191406-.054687-.382813-.09375-.574219-.015624-.082031-.03125-.164063-.050781-.242187-.046875-.1875-.097656-.371094-.15625-.554688-.027343-.082031-.050781-.164062-.078125-.242188-.066406-.179687-.140625-.359374-.222656-.539062-.035156-.074219-.0625-.152344-.097656-.226562-.007813-.019532-.015625-.035157-.023438-.054688-.242187-.488281-.535156-.933594-.863281-1.347656-.027344-.035156-.0625-.070313-.09375-.109375-.144531-.175781-.296875-.347657-.460937-.507813-.015626-.015625-.03125-.039062-.046876-.054687-.035156-.035157-.074218-.0625-.109374-.09375-.148438-.140625-.296876-.273438-.453126-.398438-.070312-.054687-.136718-.109375-.203124-.160156-.152344-.113281-.308594-.21875-.464844-.320313-.074219-.046874-.148438-.09375-.226563-.140624-.171875-.101563-.351562-.195313-.53125-.28125-.0625-.03125-.121093-.0625-.183593-.09375-.242188-.109376-.488282-.207032-.738282-.289063-.0625-.019531-.125-.035156-.183594-.054687-.195312-.058594-.394531-.113282-.59375-.15625-.085937-.019532-.175781-.03125-.261718-.046876-.183594-.035156-.363282-.0625-.546875-.082031-.089844-.007812-.179688-.015625-.269531-.023437-.191407-.011719-.378907-.015625-.574219-.015625-.078125 0-.15625 0-.238281.003906-.222657.007813-.445313.027344-.671876.054687-.039062.007813-.074218.003907-.113281.011719l-.082031.011719c-.015625.003906-.035156.003906-.050781.007812l-166.785157 24.121094c-.050781.007813-.097656.023438-.144531.03125-.132812.019532-.265625.046875-.394531.078125-.117188.023438-.234375.050781-.347656.082031-.121094.03125-.238282.070313-.359375.109376-.117188.039062-.238281.078124-.355469.121093-.113281.042969-.222656.09375-.332031.140625-.117188.050782-.234375.097656-.34375.15625-.117188.054688-.226563.121094-.335938.179688-.101562.058594-.207031.113281-.308593.175781-.121094.078125-.242188.164063-.359376.25-.082031.054687-.164062.109375-.242187.171875-.140625.105469-.273437.222656-.40625.339844-.050781.046875-.109375.089844-.160156.140625-.160157.152343-.3125.3125-.460938.480469-.019531.019531-.039062.039062-.058593.058593-.433594.496094-.796876 1.0625-1.097657 1.683594-.042969.085937-.089843.171875-.128906.261719v.003906c-.523437 1.207031-.703125 2.480469-.585937 3.707031.003906.050781.015624.105469.019531.15625.023437.195313.050781.390625.089843.582031 0 .015626.003907.03125.003907.042969l11.285156 55.699219-51.054687 23.664062c-1.785157.828126-3.179688 2.324219-3.875 4.167969l-13.191407 34.824219h-48.421875c-2.484375 0-4.8125 1.226562-6.214844 3.277344-1.4062495 2.050781-1.710937 4.664062-.8125 6.980468l41.296876 106.597657h-26.839844c-4.160156 0-7.53125 3.375-7.53125 7.535156s3.371094 7.535156 7.53125 7.535156h489.5c4.164062 0 7.535156-3.375 7.535156-7.535156s-3.371094-7.535156-7.535156-7.535156zm-121.8125-101.785157-31.175782 101.785157h-82.058593l88.941406-101.785157zm-161.472656 101.785157-30.253907-204.683594 86.914063-43.152344-31.648438 247.835938zm-38.050782-217.636719-35.570312-15.414062 93.996094-13.59375zm101.5 35.621094 40.246094 95.644531-61.441406 70.316406zm97.867188 29.703125-32.449219 37.136719c-.664063.539062-1.230469 1.191406-1.679687 1.921874l-12.457032 14.253907-44.550781-105.867188 63-20.007812zm-300.34375 8.84375 45.003906-20.859375 9.617188 47.472656h-64.703126zm-63.617188 41.683593h42.578125c.015625 0 .027344.003907.042969.003907.011719 0 .019531-.003907.027344-.003907h78.640625l20.621093 101.785157h-17.414062v-54.449219c0-4.160156-3.371094-7.53125-7.53125-7.53125h-39.429688c-4.164062 0-7.535156 3.371094-7.535156 7.53125v54.449219h-30.570312zm85.070313 101.785157v-46.910157h24.359375v46.910157zm26.824219-224.046875 45.300781 19.628906 30.214843 204.417969h-30.125zm0 0"/><path d="m273.9375 66.554688h.132812c9.703126 0 17.597657 7.894531 17.597657 17.601562 0 18.011719 14.65625 32.667969 32.667969 32.667969h86.664062c18.011719 0 32.667969-14.65625 32.667969-32.667969v-1.21875c0-18.015625-14.65625-32.667969-32.667969-32.667969h-.132812c-9.703126 0-17.601563-7.894531-17.601563-17.601562 0-18.011719-14.652344-32.667969-32.667969-32.667969h-18.304687c-4.160157 0-7.535157 3.375-7.535157 7.535156s3.375 7.535156 7.535157 7.535156h18.304687c9.703125 0 17.601563 7.894532 17.601563 17.597657 0 18.015625 14.652343 32.667969 32.667969 32.667969h.132812c9.703125 0 17.597656 7.894531 17.597656 17.601562v1.21875c0 9.703125-7.894531 17.597656-17.597656 17.597656h-86.664062c-9.703126 0-17.597657-7.894531-17.597657-17.597656 0-18.015625-14.65625-32.667969-32.667969-32.667969h-.132812c-9.703125 0-17.601562-7.894531-17.601562-17.601562v-1.21875c0-9.703125 7.894531-17.597657 17.601562-17.597657h38.855469c4.160156 0 7.53125-3.375 7.53125-7.535156s-3.371094-7.535156-7.53125-7.535156h-38.855469c-18.015625 0-32.667969 14.65625-32.667969 32.667969v1.21875c0 18.015625 14.652344 32.667969 32.667969 32.667969zm0 0"/></svg>