<?xml version="1.0" encoding="UTF-8"?>
<!DOCTYPE svg PUBLIC "-//W3C//DTD SVG 1.0//EN" "http://www.w3.org/TR/2001/REC-SVG-20010904/DTD/svg10.dtd">
<!-- Creator: CorelDRAW 2018 (64-Bit) -->
<svg xmlns="http://www.w3.org/2000/svg" xml:space="preserve" width="512px" height="512px" version="1.0" style="shape-rendering:geometricPrecision; text-rendering:geometricPrecision; image-rendering:optimizeQuality; fill-rule:evenodd; clip-rule:evenodd"
viewBox="0 0 512000 512000"
 xmlns:xlink="http://www.w3.org/1999/xlink">
 <defs>
  <style type="text/css">
   <![CDATA[
    .fil0 {fill:white}
   ]]>
  </style>
 </defs>
 <g id="Layer_x0020_1">
  <metadata id="CorelCorpID_0Corel-Layer"/>
  <path class="fil0" d="M468070 74940c-1860,-1860 -4440,-2930 -7070,-2930 -2630,0 -5210,1070 -7070,2930 -1860,1860 -2930,4440 -2930,7070 0,2630 1070,5210 2930,7070 1860,1860 4440,2930 7070,2930 2630,0 5210,-1070 7070,-2930 1860,-1860 2930,-4440 2930,-7070 0,-2630 -1070,-5210 -2930,-7070zm-317000 65750c-1860,-1870 -4440,-2930 -7070,-2930 -2630,0 -5210,1060 -7070,2930 -1860,1860 -2930,4430 -2930,7070 0,2630 1070,5210 2930,7070 1860,1860 4440,2930 7070,2930 2630,0 5210,-1070 7070,-2930 1860,-1860 2930,-4440 2930,-7070 0,-2630 -1070,-5210 -2930,-7070zm-45780 -2930l-54290 0c-5530,0 -10000,4470 -10000,10000 0,5520 4470,10000 10000,10000l54290 0c5520,0 10000,-4480 10000,-10000 0,-5530 -4480,-10000 -10000,-10000zm0 48000l-54290 0c-5530,0 -10000,4480 -10000,10000 0,5520 4470,10000 10000,10000l54290 0c5520,0 10000,-4480 10000,-10000 0,-5520 -4480,-10000 -10000,-10000zm355710 -48000l-54290 0c-5520,0 -10000,4470 -10000,10000 0,5520 4480,10000 10000,10000l54290 0c5530,0 10000,-4480 10000,-10000 0,-5530 -4470,-10000 -10000,-10000zm0 48000l-54290 0c-5520,0 -10000,4480 -10000,10000 0,5520 4480,10000 10000,10000l54290 0c5530,0 10000,-4480 10000,-10000 0,-5520 -4470,-10000 -10000,-10000zm-39780 58230c0,-3640 -1970,-6980 -5150,-8750l-155220 -86000c-3020,-1670 -6680,-1670 -9700,0l-155220 86000c-3180,1770 -5150,5110 -5150,8750l0 172000c0,3640 1970,6990 5150,8750l155220 86000c1510,830 3180,1250 4850,1250 1670,0 3340,-420 4850,-1250l155220 -86000c3180,-1760 5150,-5110 5150,-8750l0 -172000 0 0zm-82570 -28780l-32830 18200 -29270 -16220 32840 -18190 29260 16210zm-53470 29630l-29490 16340 -29260 -16220 29490 -16330 29260 16210zm-29180 -75420l32750 18150 -32830 18190 -32750 -18150 32830 -18190zm-53470 29630l32750 18140 -29480 16340 -32750 -18150 29480 -16330zm-60120 228580l-31630 -17530 0 -34290 31630 17530 0 34290zm0 -57160l-31630 -17530 0 -34550 31630 17520 0 34560zm0 -57420l-31630 -17530 0 -34560 31630 17530 0 34560zm-21000 -69060l31000 -17170 32750 18140 -30990 17180 -32760 -18150zm72800 212340l-31800 -17620 0 -34290 31800 17610 0 34300zm0 -57160l-31800 -17620 0 -34560 31800 17620 0 34560zm0 -57430l-31800 -17610 0 -34560 31800 17620 0 34550zm-19410 -68170l31000 -17170 29260 16210 -31000 17170 -29260 -16210zm71200 211450l-31790 -17620 0 -34290 31790 17620 0 34290zm0 -57160l-31790 -17610 0 -34560 31790 17620 0 34550zm0 -57420l-31790 -17610 0 -34560 31790 17610 0 34560zm10000 -51880l-31300 -17340 31000 -17180 31300 17350 -31000 17170zm41630 148930l-31630 17530 0 -34290 31630 -17530 0 34290zm0 -57150l-31630 17520 0 -34550 31630 -17530 0 34560zm0 -57430l-31630 17530 0 -34560 31630 -17520 0 34550zm-21300 -80300l29490 -16340 31300 17350 -29490 16330 -31300 -17340zm73100 166190l-31800 17610 0 -34290 31800 -17610 0 34290zm0 -57160l-31800 17620 0 -34560 31800 -17620 0 34560zm0 -57420l-31800 17610 0 -34550 31800 -17620 0 34560zm-22980 -79380l32830 -18190 31310 17340 -32840 18190 -31300 -17340zm74770 165260l-31790 17620 0 -34300 31790 -17610 0 34290zm0 -57160l-31790 17620 0 -34560 31790 -17610 0 34550zm0 -57420l-31790 17620 0 -34560 31790 -17620 0 34560zm-250150 -256580c-1860,-1860 -4440,-2930 -7070,-2930 -2630,0 -5210,1070 -7070,2930 -1860,1860 -2930,4440 -2930,7070 0,2640 1070,5210 2930,7070 1860,1860 4440,2930 7070,2930 2630,0 5210,-1070 7070,-2930 1860,-1860 2930,-4440 2930,-7070 0,-2630 -1070,-5210 -2930,-7070zm-80000 0c-1860,-1860 -4440,-2930 -7070,-2930 -2630,0 -5210,1070 -7070,2930 -1860,1860 -2930,4440 -2930,7070 0,2630 1070,5210 2930,7070 1860,1860 4440,2930 7070,2930 2630,0 5210,-1070 7070,-2930 1860,-1860 2930,-4440 2930,-7070 0,-2630 -1070,-5210 -2930,-7070zm40000 0c-1860,-1860 -4440,-2930 -7070,-2930 -2630,0 -5210,1070 -7070,2930 -1860,1860 -2930,4440 -2930,7070 0,2630 1070,5210 2930,7070 1860,1860 4440,2930 7070,2930 2630,0 5210,-1070 7070,-2930 1860,-1860 2930,-4440 2930,-7070 0,-2630 -1070,-5210 -2930,-7070zm390930 -38930l-492000 0c-5530,0 -10000,4480 -10000,10000l0 438000c0,5530 4470,10010 10000,10010l57690 0c5520,0 9990,-4480 9990,-10010 0,-5520 -4470,-10000 -9990,-10000l-47690 0 0 -346000 402000 0c5520,0 10000,-4480 10000,-10000 0,-5520 -4480,-10000 -10000,-10000l-402000 0 0 -52000 472000 0 0 221340c0,5520 4480,10000 10000,10000 5530,0 10000,-4480 10000,-10000l0 -231340c0,-5520 -4470,-10000 -10000,-10000zm7070 275260c-1860,-1860 -4440,-2920 -7070,-2920 -2630,0 -5210,1060 -7070,2920 -1860,1870 -2930,4440 -2930,7070 0,2640 1070,5210 2930,7080 1860,1860 4440,2930 7070,2930 2630,0 5200,-1070 7070,-2930 1860,-1870 2930,-4440 2930,-7080 0,-2630 -1070,-5200 -2930,-7070zm-7070 40740c-5520,0 -10000,4480 -10000,10000l0 112000 -44000 0c-5520,0 -10000,4480 -10000,10000 0,5530 4480,10010 10000,10010l54000 0c5530,0 10000,-4480 10000,-10010l0 -122000c0,-5520 -4470,-10000 -10000,-10000z"/>
 </g>
</svg>
