<?xml version="1.0" encoding="iso-8859-1"?>
<!-- Generator: Adobe Illustrator 19.0.0, SVG Export Plug-In . SVG Version: 6.00 Build 0)  -->
<svg xmlns="http://www.w3.org/2000/svg" xmlns:xlink="http://www.w3.org/1999/xlink" version="1.1" id="Layer_1" x="0px" y="0px" viewBox="0 0 512.001 512.001" style="enable-background:new 0 0 512.001 512.001;" xml:space="preserve" width="512px" height="512px">
<g>
	<g>
		<path d="M502.278,204.819c-0.974,0.202-24.103,5.007-43.64,10.863c-26.141,7.835-41.134,24.336-41.134,45.267v94.486h-66.178    c-16.344,0-29.642,13.297-29.642,29.642v122.88h16.167v-122.88c0-7.43,6.044-13.474,13.474-13.474h82.347V260.95    c0-18.19,18.551-26.466,29.608-29.78c11.235-3.367,24.011-6.439,32.551-8.383v157.037c0,19.316-15.715,35.032-35.032,35.032    h-89.503l-11.684,93.103h16.036l9.874-76.935h75.279c28.231,0,51.2-22.969,51.2-51.2V202.808L502.278,204.819z" fill="#FFFFFF"/>
	</g>
</g>
<g>
	<g>
		<path d="M465.116,78.556h-0.009c-25.264,0-45.925,20.083-46.852,45.124l-22.614,51.887h22.582v26.947h44.733    c27.043,0,49.044-22.001,49.044-49.044v-28.03C512,99.588,490.967,78.556,465.116,78.556z M495.832,153.47    c0,18.128-14.749,32.876-32.876,32.876h-28.564v-26.948h-14.067l14.067-32.272v-1.685c0-16.937,13.779-30.716,30.716-30.716h0.009    c16.937,0,30.716,13.779,30.716,30.716V153.47z" fill="#FFFFFF"/>
	</g>
</g>
<g>
	<g>
		<path d="M160.674,355.436H94.496V260.95c0-20.932-14.992-37.431-41.134-45.267c-19.537-5.856-42.665-10.661-43.64-10.863    L0,202.808v177.016c0,28.231,22.969,51.2,51.2,51.2h75.279l9.873,76.935h16.036l-11.684-93.103H51.2    c-19.317,0-35.032-15.716-35.032-35.032V222.787c8.536,1.941,21.308,5.013,32.551,8.383c11.057,3.315,29.608,11.591,29.608,29.78    v110.654h82.347c7.43,0,13.474,6.044,13.474,13.474v122.88h16.168v-122.88C190.316,368.733,177.018,355.436,160.674,355.436z" fill="#FFFFFF"/>
	</g>
</g>
<g>
	<g>
		<path d="M93.745,123.68c-0.928-25.041-21.588-45.124-46.852-45.124h-0.009C21.033,78.556,0,99.588,0,125.44v28.03    c0,27.043,22.001,49.044,49.044,49.044h44.733v-26.947h22.582L93.745,123.68z M77.608,159.398v26.947H49.044    c-18.127,0-32.876-14.748-32.876-32.876v-28.03c0-16.937,13.779-30.716,30.716-30.716h0.009c16.937,0,30.716,13.779,30.716,30.716    v1.685l14.067,32.273H77.608z" fill="#FFFFFF"/>
	</g>
</g>
<g>
	<g>
		<path d="M121.263,273.516v48.505h113.447v185.937h16.168V322.021h16.168v185.937h16.168V322.021h107.521v-48.505H121.263z     M374.568,305.853H137.432v-16.168h237.137V305.853z" fill="#FFFFFF"/>
	</g>
</g>
<g>
	<g>
		<path d="M365.406,88.198v-41.04h-45.272V4.042H131.503v41.04L92.321,92.968h39.183V128h33.774v-16.168h-17.605V76.8h-21.23    l21.23-25.946V20.21h156.295v26.947H176.775v123.958h188.632v-35.032h39.183L365.406,88.198z M349.238,119.916v35.032H192.943V128    h127.192V73.709h-16.168v38.123H192.943V63.326h156.295V93.97l21.23,25.946H349.238z" fill="#FFFFFF"/>
	</g>
</g>
<g>
	<g>
		<g>
			<rect x="202.644" y="215.309" width="16.168" height="16.168" fill="#FFFFFF"/>
			<rect x="247.916" y="215.309" width="16.168" height="16.168" fill="#FFFFFF"/>
			<rect x="293.187" y="215.309" width="16.168" height="16.168" fill="#FFFFFF"/>
		</g>
	</g>
</g>
<g>
</g>
<g>
</g>
<g>
</g>
<g>
</g>
<g>
</g>
<g>
</g>
<g>
</g>
<g>
</g>
<g>
</g>
<g>
</g>
<g>
</g>
<g>
</g>
<g>
</g>
<g>
</g>
<g>
</g>
</svg>
