<?xml version="1.0" encoding="UTF-8"?>
<!DOCTYPE svg PUBLIC "-//W3C//DTD SVG 1.0//EN" "http://www.w3.org/TR/2001/REC-SVG-20010904/DTD/svg10.dtd">
<!-- Creator: CorelDRAW 2018 (64-Bit) -->
<svg xmlns="http://www.w3.org/2000/svg" xml:space="preserve" width="512px" height="512px" version="1.0" style="shape-rendering:geometricPrecision; text-rendering:geometricPrecision; image-rendering:optimizeQuality; fill-rule:evenodd; clip-rule:evenodd"
viewBox="0 0 512000 512000"
 xmlns:xlink="http://www.w3.org/1999/xlink">
 <defs>
  <style type="text/css">
   <![CDATA[
    .fil0 {fill:white}
   ]]>
  </style>
 </defs>
 <g id="Layer_x0020_1">
  <metadata id="CorelCorpID_0Corel-Layer"/>
  <path class="fil0" d="M470030 33580c-6950,0 -12590,5640 -12590,12590 0,6950 5640,12590 12590,12590 6950,0 12590,-5640 12590,-12590 -10,-6950 -5640,-12580 -12590,-12590zm25180 188850l0 -142900c10530,-7860 16740,-20220 16780,-33360 0,-23180 -18790,-41970 -41970,-41970 -19930,10 -37120,14040 -41110,33580l-135140 0c-4640,0 -8390,3750 -8390,8390l0 67260c-3060,270 -5720,2190 -6940,5000l-3810 8990c-770,230 -1520,460 -2270,710l-8230 -4800c-2860,-1670 -6440,-1500 -9130,440l-12310 8860c-2730,1970 -4030,5380 -3280,8670l2070 9080c-450,590 -890,1190 -1320,1800l-9560 890c-3310,300 -6130,2530 -7190,5690l-4740 14220c-990,2930 -280,6170 1850,8420l6100 6480 0 2820 -6100 6480c-2130,2250 -2840,5490 -1850,8420l4740 14220c1060,3150 3880,5390 7190,5690l9560 890c430,610 870,1210 1320,1790l-2070 9090c-740,3280 550,6700 3280,8670l12300 8860c2690,1940 6270,2110 9140,440l8230 -4800c790,260 1590,510 2410,750l3760 8280c1360,2990 4350,4920 7640,4910l15200 10c3290,0 6280,-1930 7640,-4920l3760 -8280c820,-240 1620,-490 2410,-750l8230 4800c2860,1670 6440,1500 9130,-440l12310 -8860c2730,-1970 4020,-5390 3270,-8670l-2070 -9090c460,-580 900,-1180 1320,-1790l9560 -880c2990,-280 5610,-2120 6860,-4850 2380,-5120 4170,-10500 5340,-16020 560,-2690 -230,-5470 -2110,-7470l-6110 -6480 0 -2830 6110 -6470c1880,-2000 2670,-4790 2110,-7470 -1170,-5520 -2960,-10900 -5340,-16020 -1250,-2720 -3870,-4570 -6860,-4850l-9560 -880c-430,-610 -870,-1210 -1320,-1800l2070 -9080c750,-3290 -540,-6700 -3270,-8670l-12300 -8860c-2690,-1940 -6270,-2110 -9140,-440l-8230 4800c-750,-250 -1510,-480 -2280,-710l-3800 -8990c-1220,-2810 -3880,-4730 -6940,-5000l0 -58870 126750 0c2100,9990 7760,18860 15940,24970l0 142900c-4640,0 -8400,3760 -8400,8390l0 268580c0,4640 3760,8400 8400,8400l50360 0c4630,0 8390,-3760 8390,-8400l0 -268580c0,-4630 -3760,-8390 -8390,-8390zm-190310 -79760l0 0c2680,600 5300,1420 7840,2460 2430,1020 5190,840 7460,-500l6960 -4050 3360 2410 -1740 7650c-600,2630 100,5380 1870,7400 1780,2040 3390,4220 4800,6530 1380,2250 3750,3720 6380,3960l8540 780c480,1310 910,2610 1290,3910l-5250 5570c-1470,1550 -2280,3610 -2280,5750l0 9500c0,2140 810,4200 2280,5750l5250 5570c-380,1300 -810,2600 -1300,3910l-8540 790c-2630,240 -4990,1700 -6370,3950 -1420,2310 -3020,4490 -4800,6530 -1770,2020 -2470,4770 -1870,7400l1740 7640 -3360 2420 -6960 -4050c-2270,-1320 -5030,-1510 -7460,-500 -2540,1040 -5160,1860 -7840,2450 -2550,590 -4670,2330 -5750,4710l-3190 7000 -4380 0 -3190 -7000c-1080,-2380 -3210,-4120 -5750,-4710 -2680,-590 -5310,-1410 -7850,-2450 -2420,-1010 -5180,-830 -7450,500l-6960 4050 -3360 -2420 1740 -7640c600,-2630 -100,-5380 -1880,-7400 -1770,-2040 -3370,-4220 -4790,-6530 -1380,-2250 -3750,-3720 -6380,-3960l-8110 -750 -1420 -4260 4950 -5250c1460,-1550 2280,-3610 2280,-5750l0 -9490c0,-2150 -820,-4210 -2280,-5760l-4950 -5250 1420 -4260 8110 -750c2630,-240 5000,-1710 6380,-3960 1420,-2300 3020,-4490 4790,-6530 1780,-2020 2480,-4770 1880,-7400l-1740 -7640 3360 -2420 6960 4060c2260,1330 5030,1510 7450,490 2540,-1040 5170,-1860 7850,-2450 2620,-610 4790,-2430 5840,-4910l3250 -7670 4080 0 3250 7670c1050,2480 3220,4300 5840,4900zm181910 348340l-28850 0 28850 -24050 0 24050zm-33570 -17920l0 -48090 28860 24040 -28860 24050zm33570 -41960l-28850 -24050 28850 -24050 0 48100zm-33570 -41970l0 -54150 29530 29530 -29530 24620zm33570 -44310l-28790 -28790 28790 -19200 0 47990zm-33570 -45780l0 -47990 28790 28800 -28790 19190zm33570 -38150l-21700 -21710 21700 0 0 21710zm-25180 -38490l0 -135140c5540,1130 11250,1130 16790,0l0 135140 -16790 0zm8400 -151080c-13910,0 -25180,-11270 -25180,-25180 0,-13910 11270,-25180 25180,-25180 13900,0 25180,11270 25180,25180 -20,13900 -11280,25160 -25180,25180zm-58760 310550l-50350 0c-4640,0 -8400,3760 -8400,8390l0 12660c-550,2420 -1270,4810 -2140,7130l-8550 780c-2620,240 -4980,1700 -6370,3940 -1410,2290 -3020,4460 -4790,6490 -1790,2020 -2490,4790 -1880,7420l2020 8860c-790,670 -1650,1240 -2590,1690l-8040 -4660c-2260,-1310 -5000,-1490 -7420,-500 -2540,1040 -5170,1860 -7850,2450 -2580,590 -4730,2370 -5800,4790l-3210 7270 -4260 0 -3210 -7270c-1070,-2420 -3220,-4200 -5800,-4790 -2680,-590 -5310,-1410 -7850,-2450 -2420,-990 -5160,-810 -7420,500l-7350 4260c-1040,-710 -2070,-1440 -3070,-2210l1810 -7940c610,-2630 -90,-5400 -1880,-7420 -1770,-2030 -3380,-4200 -4790,-6490 -1390,-2240 -3750,-3700 -6370,-3940l-8550 -780c-870,-2320 -1590,-4710 -2140,-7130l0 -12660c0,-4630 -3760,-8390 -8390,-8390l-25180 0 0 -58750c0,-4640 -3760,-8400 -8400,-8400l-41960 0 0 -184650c0,-4630 -3760,-8390 -8400,-8390l-9060 0c-4590,-32080 -34320,-54360 -66400,-49770 -25800,3700 -46070,23970 -49760,49770l-9070 0c-4640,0 -8390,3760 -8390,8390l0 369300c0,4640 3750,8400 8390,8400l402870 0c4640,0 8400,-3760 8400,-8400l0 -109110c0,-4630 -3760,-8390 -8400,-8390zm-335730 -293760c19940,20 37110,14040 41130,33570l-82250 0c4020,-19530 21190,-33550 41120,-33570zm327340 402870l-386090 0 0 -352510 117510 0 0 184650c0,4630 3760,8390 8390,8390l41970 0 0 58750c0,4640 3750,8390 8390,8390l25180 0 0 5170c0,580 60,1150 180,1720 1170,5500 2970,10850 5350,15940 1260,2710 3870,4560 6850,4830l9570 870c420,600 860,1180 1290,1760l-2050 8980c-690,2970 300,6090 2580,8120 4220,3790 8850,7100 13800,9880 2580,1440 5740,1420 8310,-60l8240 -4790c770,260 1560,510 2370,740l3770 8550c1340,3040 4360,5010 7680,5010l15200 0c3320,-10 6330,-1970 7680,-5010l3770 -8550c800,-230 1590,-480 2360,-740l8250 4780c2170,1260 4790,1480 7140,610 6480,-1970 12120,-6040 16040,-11570 1510,-1990 2070,-4540 1510,-6970l-2060 -8980c440,-580 870,-1160 1300,-1760l9570 -870c2980,-280 5590,-2120 6850,-4830 2380,-5100 4180,-10440 5350,-15940 120,-570 180,-1140 180,-1720l0 -5170 33570 0 0 92330 0 0zm-302160 -67150l16790 0 0 -16780 -16790 0 0 16780zm-33570 0l16790 0 0 -16780 -16790 0 0 16780zm-33570 0l16790 0 0 -16780 -16790 0 0 16780zm67140 -33570l16790 0 0 -16790 -16790 0 0 16790zm-33570 0l16790 0 0 -16790 -16790 0 0 16790zm-33570 0l16790 0 0 -16790 -16790 0 0 16790zm67140 -33570l16790 0 0 -16790 -16790 0 0 16790zm-33570 0l16790 0 0 -16790 -16790 0 0 16790zm-33570 0l16790 0 0 -16790 -16790 0 0 16790zm67140 -33570l16790 0 0 -16790 -16790 0 0 16790zm-33570 0l16790 0 0 -16790 -16790 0 0 16790zm-33570 0l16790 0 0 -16790 -16790 0 0 16790zm67140 -33580l16790 0 0 -16780 -16790 0 0 16780zm-33570 0l16790 0 0 -16780 -16790 0 0 16780zm-33570 0l16790 0 0 -16780 -16790 0 0 16780zm67140 -33570l16790 0 0 -16790 -16790 0 0 16790zm-33570 0l16790 0 0 -16790 -16790 0 0 16790zm-33570 0l16790 0 0 -16790 -16790 0 0 16790zm67140 -33570l16790 0 0 -16790 -16790 0 0 16790zm-33570 0l16790 0 0 -16790 -16790 0 0 16790zm-33570 0l16790 0 0 -16790 -16790 0 0 16790zm67140 -33580l16790 0 0 -16780 -16790 0 0 16780zm-67140 0l16790 0 0 -16780 -16790 0 0 16780zm33570 0l16790 0 0 -16780 -16790 0 0 16780zm226620 -33570c-18530,20 -33550,15040 -33570,33570 0,18550 15030,33580 33570,33580 18540,0 33570,-15030 33570,-33580 0,-18540 -15030,-33570 -33570,-33570zm0 50360c-9270,0 -16790,-7510 -16790,-16790 0,-9270 7520,-16780 16790,-16780 9270,10 16780,7520 16790,16780 0,9280 -7520,16790 -16790,16790zm176260 -155270c-2320,0 -4200,-1880 -4200,-4200 0,-2320 1880,-4200 4200,-4200 2310,0 4190,1880 4190,4200 0,2320 -1880,4190 -4190,4200z"/>
 </g>
</svg>
