<?xml version="1.0" encoding="UTF-8"?>
<!DOCTYPE svg PUBLIC "-//W3C//DTD SVG 1.0//EN" "http://www.w3.org/TR/2001/REC-SVG-20010904/DTD/svg10.dtd">
<!-- Creator: CorelDRAW 2018 (64-Bit) -->
<svg xmlns="http://www.w3.org/2000/svg" xml:space="preserve" width="512px" height="512px" version="1.0" style="shape-rendering:geometricPrecision; text-rendering:geometricPrecision; image-rendering:optimizeQuality; fill-rule:evenodd; clip-rule:evenodd"
viewBox="0 0 512000 512000"
 xmlns:xlink="http://www.w3.org/1999/xlink">
 <defs>
  <style type="text/css">
   <![CDATA[
    .fil0 {fill:white}
   ]]>
  </style>
 </defs>
 <g id="Layer_x0020_1">
  <metadata id="CorelCorpID_0Corel-Layer"/>
  <path class="fil0" d="M166280 426060l281650 0c4140,0 7500,-3360 7500,-7500 0,-4140 -3360,-7500 -7500,-7500l-281650 0c-4140,0 -7500,3360 -7500,7500 0,4140 3360,7500 7500,7500zm338220 -288190c4150,0 7500,-3360 7500,-7500l0 -27390c0,-14940 -12130,-27100 -27050,-27100l-366260 0 0 -330c0,-32800 -26620,-59480 -59350,-59480 -32720,0 -59340,26680 -59340,59480l0 234620c0,4140 3360,7500 7500,7500 4140,0 7500,-3360 7500,-7500l0 -234620c0,-24530 19890,-44480 44340,-44480 24450,0 44350,19950 44350,44480l0 7830 0 313550c-1030,-1160 -2110,-2280 -3240,-3370 -10340,-9950 -23550,-15680 -37680,-16480 -290,-10 -580,-20 -880,-30 -740,-30 -1480,-50 -2220,-60 -110,0 -220,-10 -330,-10 -310,0 -620,20 -940,30 -450,10 -900,0 -1360,20 -180,0 -360,20 -550,30 -400,20 -800,50 -1200,80 -630,40 -1250,90 -1880,150 -420,40 -830,90 -1250,140 -580,70 -1160,150 -1730,240 -460,70 -910,140 -1360,220 -500,90 -990,190 -1490,290 -520,100 -1030,210 -1550,320 -340,80 -680,180 -1030,260 -11770,2940 -22180,9400 -30000,18210l0 -56380c0,-4140 -3360,-7500 -7500,-7500 -4150,0 -7500,3360 -7500,7500l0 95870c0,90 10,180 10,270 60,15400 5900,29880 16630,41020 11280,11720 26450,18180 42700,18180l425610 0c14920,0 27050,-12160 27050,-27100l0 -307220c0,-4140 -3350,-7500 -7500,-7500 -4140,0 -7500,3360 -7500,7500l0 307220c0,6670 -5400,12100 -12050,12100l-425610 0c-12130,0 -23460,-4830 -31900,-13590 -8330,-8650 -12720,-20020 -12410,-32050 10,-260 10,-510 20,-760 20,-440 50,-870 80,-1310 20,-300 40,-610 70,-920 40,-410 90,-820 140,-1230 30,-310 70,-620 110,-930 60,-420 130,-840 210,-1260 40,-280 90,-560 140,-840 90,-450 190,-900 290,-1350 50,-230 100,-450 150,-680 130,-500 260,-990 390,-1490 50,-160 90,-310 140,-470 160,-550 330,-1110 510,-1650 30,-80 50,-160 80,-240 4210,-12360 13750,-22330 25820,-27110 60,-20 110,-40 170,-60 540,-210 1080,-410 1630,-600 150,-50 310,-110 460,-160 470,-160 950,-300 1420,-440 240,-80 480,-140 730,-210 400,-110 820,-220 1230,-320 320,-80 630,-150 950,-230 360,-70 720,-150 1070,-220 380,-80 760,-140 1150,-210 310,-50 630,-100 950,-150 420,-60 840,-110 1270,-160 290,-40 590,-70 880,-100 440,-40 880,-70 1310,-100 310,-20 610,-40 910,-60 400,-20 810,-20 1210,-30 360,-10 720,-20 1080,-10 440,0 870,10 1310,30 300,10 600,20 900,30 550,30 1090,70 1620,120 180,20 370,30 550,50 700,70 1390,160 2090,270 0,0 10,0 20,0 19780,3040 35290,19240 37360,39380 150,1510 230,3040 230,4590 0,50 10,110 20,160 0,270 20,530 60,790 10,110 30,230 50,340 40,260 100,510 170,760 20,60 30,140 60,200 90,290 200,560 320,830 40,90 90,190 130,280 120,230 240,450 380,670 40,60 80,130 130,200 160,230 330,450 520,670 70,80 150,160 220,240 180,190 370,370 570,540 60,60 130,110 190,160 220,180 450,340 690,490 80,50 160,100 240,150 280,160 570,310 860,430 10,10 20,10 30,10 20,20 50,20 80,30 280,110 560,200 850,280 80,20 160,40 240,60 320,80 630,130 960,170 50,0 90,0 150,0 190,20 390,30 590,30 80,0 160,-10 240,-10 90,0 190,-10 280,-10 300,-20 610,-60 900,-120 20,0 30,0 50,0 330,-70 650,-160 960,-270 60,-20 120,-40 180,-60 300,-110 580,-240 860,-380 20,-10 40,-20 60,-30 290,-160 570,-330 830,-530 60,-40 120,-80 180,-130 270,-200 530,-420 760,-650 0,0 0,0 0,-10 20,-10 40,-30 50,-50 160,-160 300,-320 440,-490 50,-50 90,-110 130,-170 110,-140 210,-270 310,-420 30,-50 60,-100 100,-150 90,-160 190,-320 280,-480 20,-30 30,-70 50,-110 100,-180 190,-360 260,-550 10,-30 20,-50 30,-80 80,-200 160,-400 220,-610 10,-30 20,-60 20,-80 60,-210 120,-420 160,-630 10,-60 20,-130 30,-190 30,-180 60,-360 80,-540 30,-250 40,-500 40,-750l0 -345570 366260 0c6650,0 12050,5430 12050,12100l0 27390c0,4140 3360,7500 7500,7500zm-249470 225300l156930 0c7780,0 14120,-6330 14120,-14120l0 -117460 9370 0c4260,0 7980,-2730 9250,-6800 1270,-4070 -230,-8440 -3730,-10870l-101960 -70640c-3250,-2260 -7770,-2260 -11030,0l-101960 70640c-3500,2430 -5000,6800 -3730,10870 1280,4070 4990,6800 9250,6800l9370 0 0 117460c0,7790 6340,14120 14120,14120zm96760 -15000l-36590 0 0 -63410 36590 0 0 63410zm59290 0l0 0 -44290 0 0 -64620c0,-7600 -6180,-13780 -13780,-13780l-39030 0c-7600,0 -13780,6180 -13780,13780l0 64620 -44290 0 0 -116580 155170 0 0 116580zm-77590 -190460l84990 58880 -169970 0 84980 -58880zm-167210 205460l24680 0c4150,0 7500,-3360 7500,-7500 0,-4140 -3350,-7500 -7500,-7500l-24680 0c-4140,0 -7500,3360 -7500,7500 0,4140 3360,7500 7500,7500zm0 -62890l24680 0c4150,0 7500,-3360 7500,-7500 0,-4140 -3350,-7500 -7500,-7500l-24680 0c-4140,0 -7500,3360 -7500,7500 0,4140 3360,7500 7500,7500zm0 -62890l24680 0c4150,0 7500,-3360 7500,-7500 0,-4140 -3350,-7500 -7500,-7500l-24680 0c-4140,0 -7500,3360 -7500,7500 0,4140 3360,7500 7500,7500zm0 -62890l24680 0c4150,0 7500,-3360 7500,-7500 0,-4140 -3350,-7500 -7500,-7500l-24680 0c-4140,0 -7500,3360 -7500,7500 0,4150 3360,7500 7500,7500z"/>
 </g>
</svg>
