<?xml version="1.0"?>
<svg xmlns="http://www.w3.org/2000/svg" height="512px" viewBox="0 0 480.00161 480" width="512px"><path d="m472 224h-40c-.023438-8.960938-3.820312-17.496094-10.464844-23.511719l57.871094-141.464843c1.441406-3.519532.199219-7.566407-2.964844-9.679688l-72-48c-3.175781-2.113281-7.402344-1.695312-10.097656 1l-18.34375 18.34375-10.34375-10.34375c-3.125-3.121094-8.1875-3.121094-11.3125 0l-13.65625 13.65625h-6.0625c-16.621094-.046875-32.566406 6.558594-44.28125 18.34375-3.121094 3.125-3.121094 8.1875 0 11.3125l9.601562 9.601562c-10.558593 8.484376-14.605468 22.710938-10.089843 35.480469 4.511719 12.769531 16.601562 21.296875 30.144531 21.261719 9.644531.015625 18.769531-4.355469 24.800781-11.878906l9.535157 9.535156c3.125 3.125 8.1875 3.125 11.3125 0 11.789062-11.71875 18.394531-27.664062 18.351562-44.289062v-6.054688l13.65625-13.65625c3.121094-3.125 3.121094-8.1875 0-11.3125l-10.34375-10.34375 13.703125-13.703125 61.105469 40.726563-54.785156 133.90625c-2.402344-.59375-4.863282-.90625-7.335938-.929688-17.671875 0-32 14.328125-32 32h-178.238281l-10.664063-32h68.902344c13.253906 0 24-10.746094 24-24v-144c0-13.253906-10.746094-24-24-24h-224c-13.253906 0-24 10.746094-24 24v144c0 13.253906 10.746094 24 24 24h68.902344l-10.664063 32h-74.238281c-4.417969 0-8 3.582031-8 8v32c0 4.417969 3.582031 8 8 8h8v200c0 4.417969 3.582031 8 8 8h32c4.417969 0 8-3.582031 8-8v-200h240v200c0 4.417969 3.582031 8 8 8h144c4.417969 0 8-3.582031 8-8v-200h8c4.417969 0 8-3.582031 8-8v-32c0-4.417969-3.582031-8-8-8zm-152-120c-7.085938.03125-13.34375-4.621094-15.347656-11.421875-2.003906-6.796875.722656-14.101563 6.691406-17.921875l22 22c-2.929688 4.535156-7.945312 7.296875-13.34375 7.34375zm50.34375-45.65625c-1.5 1.5-2.34375 3.535156-2.34375 5.65625v9.367188c.027344 9.609374-2.9375 18.988281-8.488281 26.832031l-51.710938-51.71875c7.84375-5.546875 17.21875-8.507813 26.824219-8.480469h9.375c2.121094 0 4.15625-.84375 5.65625-2.34375l10.34375-10.34375 20.6875 20.6875zm29.65625 149.65625c8.835938 0 16 7.164062 16 16h-32c0-8.835938 7.164062-16 16-16zm-376-192h224c4.417969 0 8 3.582031 8 8v120h-240v-120c0-4.417969 3.582031-8 8-8zm-8 152v-8h240v8c0 4.417969-3.582031 8-8 8h-224c-4.417969 0-8-3.582031-8-8zm93.769531 24h52.460938l10.664062 32h-73.789062zm-61.769531 272h-16v-192h16zm400-96h-128v-48h128zm-128 96v-80h128v80zm128-160h-128v-32h128zm16-48h-448v-16h448zm0 0" fill="#FFFFFF"/><path d="m380.960938 295.359375c.960937.410156 1.992187.628906 3.039062.640625.507812-.011719 1.011719-.066406 1.511719-.160156.53125-.074219 1.050781-.234375 1.527343-.480469.492188-.160156.953126-.402344 1.359376-.71875.472656-.320313.882812-.640625 1.28125-.960937 3.09375-3.152344 3.09375-8.203126 0-11.359376-.394532-.363281-.820313-.683593-1.28125-.960937-.40625-.3125-.867188-.558594-1.359376-.71875-.476562-.242187-.996093-.40625-1.527343-.480469-1.53125-.320312-3.121094-.152344-4.550781.480469-.980469.386719-1.875.957031-2.640626 1.679687-3.09375 3.15625-3.09375 8.207032 0 11.359376.765626.722656 1.660157 1.292968 2.640626 1.679687zm0 0" fill="#FFFFFF"/><path d="m378.320312 349.679688c1.53125 1.464843 3.5625 2.292968 5.679688 2.320312.507812-.011719 1.011719-.066406 1.511719-.160156.53125-.074219 1.050781-.234375 1.527343-.480469.492188-.160156.953126-.402344 1.359376-.71875.472656-.320313.882812-.640625 1.28125-.960937 1.460937-1.53125 2.289062-3.5625 2.320312-5.679688-.015625-.535156-.074219-1.070312-.167969-1.597656-.082031-.503906-.238281-.988282-.472656-1.441406-.179687-.507813-.417969-.992188-.71875-1.441407l-.960937-1.199219c-.398438-.320312-.800782-.640624-1.28125-.960937-.40625-.3125-.867188-.558594-1.359376-.71875-.476562-.242187-.996093-.40625-1.527343-.480469-1.53125-.320312-3.121094-.152344-4.550781.480469-.980469.386719-1.875.957031-2.640626 1.679687-.34375.378907-.664062.78125-.960937 1.199219-.300781.445313-.542969.929688-.71875 1.441407-.230469.453124-.394531.9375-.480469 1.441406-.089844.527344-.144531 1.0625-.160156 1.597656.027344 2.121094.855469 4.148438 2.320312 5.679688zm0 0" fill="#FFFFFF"/><path d="m388.398438 417.359375c-.40625-.3125-.867188-.558594-1.359376-.71875-.476562-.242187-.996093-.40625-1.527343-.480469-1.53125-.320312-3.121094-.152344-4.550781.480469-.980469.386719-1.875.957031-2.640626 1.679687-3.09375 3.15625-3.09375 8.207032 0 11.359376.765626.722656 1.660157 1.292968 2.640626 1.679687.960937.410156 1.992187.628906 3.039062.640625.507812-.011719 1.011719-.066406 1.511719-.160156.53125-.074219 1.050781-.234375 1.527343-.480469.492188-.160156.953126-.402344 1.359376-.71875.460937-.277344.886718-.597656 1.28125-.960937 3.09375-3.152344 3.09375-8.203126 0-11.359376-.398438-.320312-.808594-.640624-1.28125-.960937zm0 0" fill="#FFFFFF"/></svg>
