<?xml version="1.0" encoding="UTF-8"?>
<!DOCTYPE svg PUBLIC "-//W3C//DTD SVG 1.0//EN" "http://www.w3.org/TR/2001/REC-SVG-20010904/DTD/svg10.dtd">
<!-- Creator: CorelDRAW 2018 (64-Bit) -->
<svg xmlns="http://www.w3.org/2000/svg" xml:space="preserve" width="512px" height="512px" version="1.0" style="shape-rendering:geometricPrecision; text-rendering:geometricPrecision; image-rendering:optimizeQuality; fill-rule:evenodd; clip-rule:evenodd"
viewBox="0 0 512000 512000"
 xmlns:xlink="http://www.w3.org/1999/xlink">
 <defs>
  <style type="text/css">
   <![CDATA[
    .fil0 {fill:white}
   ]]>
  </style>
 </defs>
 <g id="Layer_x0020_1">
  <metadata id="CorelCorpID_0Corel-Layer"/>
  <path class="fil0" d="M198150 428410l-36240 0c-10170,0 -13190,-3010 -31220,-47620l-8960 -3640c-37940,17140 -42590,17140 -45420,17140l-5760 0 -4570 -4140 -25640 -25130c-7460,-7380 -7460,-11280 12110,-55700l-3500 -8320c-45830,-16410 -48950,-19420 -48950,-29890l0 -35520c0,-10360 2800,-13080 48760,-30890l3500 -8310c-19830,-41870 -20830,-47440 -12950,-55110l29740 -29110 6240 -110c2640,0 7430,0 46040,16220l8910 -3600c16760,-44780 19750,-47820 30160,-47820l36240 0c10280,0 13030,2750 31190,47630l8910 3610c37880,-17140 42590,-17140 45440,-17140l5760 0 4580 4110 25720 25080c7430,7400 7430,11300 -12140,55750l3530 8370c46120,16520 48920,19240 48920,29870l0 35460c0,10390 -2800,13110 -48760,30920l-3500 8340c20510,43270 20590,47570 13080,55030l-29870 29220 -6240 110c-2640,0 -7430,0 -45990,-16260l-8930 3660c-16790,44750 -19800,47790 -30190,47790zm209320 6730l-1970 0 -17890 -6000c-8210,-2770 -8990,-8130 -9960,-29120 -5410,570 -13180,1380 -17220,1380 -7590,0 -11000,-3820 -12540,-7030l-7420 -15330c-3480,-7750 -330,-12140 13420,-27640l-20 -240c-15530,-12620 -19650,-16710 -16980,-24970l5510 -16490c2770,-8100 8530,-9020 28630,-10200l190 -220c-2120,-20610 -2100,-26020 5380,-29970l17980 -9180 2900 0c4200,0 5840,0 21910,14480 13210,-16630 15680,-18060 21330,-18060l1990 0 17840 6000c8210,2670 9040,8530 9960,29120 5440,-600 13240,-1400 17250,-1400 7640,0 11030,3900 12540,7150l7370 15230c3820,7400 620,11820 -13370,27670l20 240c15230,12400 19750,16900 16850,25240l-5440 16250c-2450,8070 -8260,8990 -28600,10200l-160 190c2070,20200 2100,26120 -5630,30050l-17730 9100 -2930 0c-4150,0 -5890,0 -21960,-14480 -12750,16090 -15360,18030 -21250,18030zm-7670 -19830l2280 750c2960,-3520 6860,-8340 10170,-12570l3580 -4570 22630 -1610 4150 3790c3950,3630 8580,7720 12080,10680l2530 -1290c-330,-4600 -890,-10870 -1480,-16250l-570 -5600 14690 -17250 5570 -320c5440,-320 11740,-750 16280,-1180l1020 -3020c-3410,-2960 -8090,-6890 -12210,-10220l-4440 -3610 -1400 -22490 3610 -4070c3740,-4220 7990,-9170 10950,-12800l-1210 -2530c-5040,430 -11410,1130 -15580,1640l-5840 730 -16980 -15050 -240 -5540c-270,-5510 -620,-11860 -1000,-16550l-2340 -780c-2960,3530 -6890,8370 -10200,12570l-3580 4570 -22540 1670 -4150 -3820c-3950,-3630 -8610,-7720 -12080,-10680l-2500 1260c320,4630 860,10900 1450,16310l570 5570 -14640 17250 -5600 270c-5410,320 -11760,780 -16300,1210l-1030 2980c3420,2990 8130,6890 12250,10230l4490 3600 1370 22610 -3600 4060c-3770,4200 -8020,9120 -11010,12750l1210 2500c5060,-450 11440,-1150 15580,-1660l5840 -730 17010 15040 240 5540c210,5520 620,11930 970,16610zm23940 -32400c-3920,0 -7750,-620 -11460,-1880 -19130,-6410 -29380,-27420 -22870,-46820 5110,-15180 19190,-25380 35030,-25380 3910,0 7730,620 11410,1830 19130,6410 29390,27450 22880,46820 -5090,15210 -19160,25430 -34990,25430zm730 -50370c-5650,0 -10680,3710 -12540,9230 -2340,6990 1210,14530 7910,16790 6600,2210 14130,-1880 16390,-8610 2370,-7000 -1180,-14530 -7880,-16790 -1270,-410 -2590,-620 -3880,-620zm-254490 67400l19880 0c3560,-8020 9310,-22630 14000,-35170l2170 -5860 31510 -12780 5440 2340c12890,5460 28090,11650 36460,14640l13830 -13510c-3310,-8150 -9690,-22310 -15420,-34230l-2770 -5780 13180 -31220 5630 -2200c12940,-5010 28010,-11110 36160,-14800l0 -18760c-8200,-3440 -23090,-9090 -35890,-13610l-5950 -2100 -13130 -31270 2500 -5620c5490,-12400 11650,-26990 14770,-35300l-13830 -13510c-8280,3200 -23030,9600 -35510,15310l-5570 2530 -31490 -12700 -2260 -5600c-5080,-12700 -11350,-27440 -15150,-35410l-19850 0c-3550,8020 -9290,22630 -13970,35170l-2180 5840 -31430 12750 -5430 -2310c-12920,-5490 -28170,-11630 -36570,-14610l-13800 13510c3310,8150 9710,22270 15420,34250l2740 5760 -13180 31240 -5630 2150c-12940,5000 -27980,11110 -36140,14800l0 18750c8210,3500 23120,9100 35930,13670l5920 2100 13100 31210 -2470 5600c-5490,12380 -11660,26990 -14780,35300l13810 13510c8280,-3200 23030,-9580 35490,-15280l5590 -2560 31490 12760 2260 5620c5110,12670 11350,27450 15120,35380zm9280 -81310c-37020,0 -67130,-29600 -67130,-66010 0,-36380 30110,-65970 67130,-65970 37030,0 67160,29590 67160,65970 0,36440 -30130,66010 -67160,66010zm0 -103520c-21310,0 -38660,16820 -38660,37510 0,20720 17350,37540 38660,37540 21340,0 38700,-16820 38700,-37540 0,-20660 -17360,-37510 -38700,-37510z"/>
 </g>
</svg>
