<?xml version="1.0" encoding="UTF-8"?>
<!DOCTYPE svg PUBLIC "-//W3C//DTD SVG 1.0//EN" "http://www.w3.org/TR/2001/REC-SVG-20010904/DTD/svg10.dtd">
<!-- Creator: CorelDRAW 2018 (64-Bit) -->
<svg xmlns="http://www.w3.org/2000/svg" xml:space="preserve" width="512px" height="512px" version="1.0" style="shape-rendering:geometricPrecision; text-rendering:geometricPrecision; image-rendering:optimizeQuality; fill-rule:evenodd; clip-rule:evenodd"
viewBox="0 0 512000 512000"
 xmlns:xlink="http://www.w3.org/1999/xlink">
 <defs>
  <style type="text/css">
   <![CDATA[
    .fil0 {fill:white}
   ]]>
  </style>
 </defs>
 <g id="Layer_x0020_1">
  <metadata id="CorelCorpID_0Corel-Layer"/>
  <path class="fil0" d="M393400 296930c-1860,-1860 -4430,-2930 -7070,-2930 -2630,0 -5210,1070 -7070,2930 -1860,1860 -2930,4440 -2930,7070 0,2630 1070,5210 2930,7070 1860,1860 4440,2930 7070,2930 2630,0 5210,-1070 7070,-2930 1870,-1860 2930,-4440 2930,-7070 0,-2630 -1060,-5210 -2930,-7070zm-38290 -97040c-1860,-1860 -4440,-2930 -7070,-2930 -2630,0 -5210,1070 -7070,2930 -1860,1860 -2930,4430 -2930,7070 0,2630 1070,5210 2930,7070 1860,1860 4440,2930 7070,2930 2630,0 5210,-1070 7070,-2930 1870,-1860 2930,-4440 2930,-7070 0,-2630 -1070,-5210 -2930,-7070zm111960 -111960c-3900,-3910 -10240,-3910 -14140,0l-88500 88500c-3910,3900 -3910,10240 0,14140 1950,1960 4510,2930 7070,2930 2560,0 5120,-970 7070,-2930l88500 -88500c3910,-3900 3910,-10230 0,-14140zm34930 -87930l-212000 0c-5520,0 -10000,4480 -10000,10000l0 217950c-12050,-11130 -28140,-17950 -45790,-17950l-108920 0c-37240,0 -67540,30300 -67540,67540l0 3860c-4870,-1980 -10180,-3070 -15750,-3070 -23160,0 -42000,18840 -42000,41990l0 910c0,14850 8040,27860 20000,34910l0 45800c0,35250 26200,64490 60160,69290l-11070 26970c-1270,3090 -920,6600 940,9370 1860,2770 4970,4430 8310,4430l44000 0c3200,0 6210,-1540 8100,-4130l26030 -35930 46560 0 26030 35930c1890,2590 4900,4130 8100,4130l44000 0c3340,0 6450,-1660 8310,-4430 1860,-2770 2210,-6280 940,-9370l-11070 -26970c33960,-4800 60160,-34040 60160,-69290l0 -45800c11960,-7050 20000,-20060 20000,-34910l0 -910c0,-23150 -18840,-41990 -42000,-41990 -5570,0 -10880,1090 -15750,3070l0 -3860c0,-3930 -360,-7780 -1010,-11540l191260 0 0 28000 -67670 0c-5520,0 -10000,4480 -10000,10000 0,5520 4480,10000 10000,10000l77670 0c5520,0 10000,-4480 10000,-10000l0 -48000 0 -246000c0,-5520 -4480,-10000 -10000,-10000zm-424250 277540c0,-26210 21330,-47540 47540,-47540l108920 0c26210,0 47540,21330 47540,47540l0 20770c-3960,6410 -6250,13950 -6250,22010l0 16920c-6400,-3950 -13940,-6240 -22000,-6240l-147500 0c-8060,0 -15600,2290 -22000,6240l0 -16920c0,-8060 -2290,-15600 -6250,-22010l0 -20770zm102000 107590c5520,0 10000,-4480 10000,-10000l0 -24130 63750 0c12130,0 22000,9870 22000,22000l0 24000 0 940c0,5510 -4490,10000 -10000,10000l-171500 0c-5510,0 -10000,-4490 -10000,-10000l0 -940 0 -24000c0,-12130 9870,-22000 22000,-22000l63750 0 0 24130c0,5520 4480,10000 10000,10000zm-62520 106870l-23980 0 8240 -20060 30280 0 -14540 20060zm125040 0l-14540 -20060 30280 0 8240 20060 -23980 0zm75230 -193680c12130,0 22000,9870 22000,22000l0 910c0,11300 -9200,20500 -20500,20500 -5520,0 -10000,4480 -10000,10000 0,5520 4480,10000 10000,10000 170,0 330,-10 500,-10l0 40220c0,27570 -22430,50000 -50000,50000l-179500 0c-27570,0 -50000,-22430 -50000,-50000l0 -40220c170,0 330,10 500,10 5520,0 10000,-4480 10000,-10000 0,-5520 -4480,-10000 -10000,-10000 -11300,0 -20500,-9200 -20500,-20500l0 -910c0,-12130 9870,-22000 22000,-22000 12130,0 22000,9870 22000,22000l0 76680 0 940c0,16540 13460,30000 30000,30000l171500 0c16540,0 30000,-13460 30000,-30000l0 -940 0 -76680c0,-12130 9870,-22000 22000,-22000zm174500 -52320l-192000 0 0 -53440 126160 -126160c3900,-3910 3900,-10240 0,-14140 -3910,-3910 -10240,-3910 -14150,0l-112010 112010 0 -144270 192000 0 0 226000z"/>
 </g>
</svg>
