<?xml version="1.0" encoding="UTF-8"?>
<!DOCTYPE svg PUBLIC "-//W3C//DTD SVG 1.0//EN" "http://www.w3.org/TR/2001/REC-SVG-20010904/DTD/svg10.dtd">
<!-- Creator: CorelDRAW 2018 (64-Bit) -->
<svg xmlns="http://www.w3.org/2000/svg" xml:space="preserve" width="512px" height="512px" version="1.0" style="shape-rendering:geometricPrecision; text-rendering:geometricPrecision; image-rendering:optimizeQuality; fill-rule:evenodd; clip-rule:evenodd"
viewBox="0 0 512000 512000"
 xmlns:xlink="http://www.w3.org/1999/xlink">
 <defs>
  <style type="text/css">
   <![CDATA[
    .fil0 {fill:white}
   ]]>
  </style>
 </defs>
 <g id="Layer_x0020_1">
  <metadata id="CorelCorpID_0Corel-Layer"/>
  <path class="fil0" d="M132160 497910c8700,-17100 26290,-28170 45930,-28170 19640,0 37230,11070 45930,28170l-91860 0zm247020 -36300c2270,-2720 5040,-4970 8160,-6650 -8160,-9440 -11220,-22480 -7970,-34620l14740 -55030c1710,-6410 8370,-10230 14770,-8510l13360 3580 23980 -89480c-7980,-6870 -11350,-17780 -8600,-28010l5010 -18580 5740 -21450c990,-3660 4790,-5850 8450,-4870l50060 13400c3670,990 5860,4790 4880,8460l-10730 40020c-1900,7090 -6530,13140 -12900,16780 -2670,1530 -5560,2600 -8570,3180l-23970 89450 13360 3570c6420,1720 10260,8380 8540,14800l-14740 55040c-680,2530 -1630,4990 -2830,7330 10750,5260 18130,15610 19600,27500 11030,580 20660,7760 24490,18150 2300,1230 4380,2850 6150,4780 2550,2810 2350,7170 -450,9740 -2810,2570 -7190,2380 -9750,-440 -1030,-1130 -2330,-1990 -3790,-2460 -2340,-760 -4120,-2700 -4640,-5140 -730,-3720 -3010,-6960 -6250,-8930 -3230,-1950 -7180,-2460 -10850,-1380 -2200,590 -4570,40 -6300,-1460 -1720,-1490 -2600,-3760 -2310,-6030 1320,-10530 -5230,-20480 -15430,-23410 -10210,-2940 -21020,2020 -25500,11650 -1110,2380 -3480,3900 -6100,3960 -2610,50 -5060,-1380 -6260,-3710 -2400,-4650 -7210,-7560 -12440,-7460 -5240,100 -9950,3180 -12160,7920 -820,1750 -2350,3060 -4200,3630 -1840,570 -3860,350 -5520,-630 -3050,-1810 -6520,-2820 -10070,-2820 -9620,-10 -17890,6830 -19730,16270 -440,2230 -1950,4120 -4050,5020 -2090,900 -4500,710 -6430,-520 -5260,-3350 -11830,-3910 -17580,-1460 -5740,2440 -9900,7560 -11170,13860 -90,260 -170,460 -240,590 -100,340 -220,620 -390,980 -230,450 -500,850 -800,1190 -190,260 -400,480 -720,800 -410,350 -820,630 -1220,840 -250,160 -470,280 -810,440 -800,330 -1670,510 -2530,510l-53540 0 -13230 0 -170 0 -235530 0 3100 -9280c8740,-26240 34260,-47060 62300,-47060 7540,0 14800,1380 21630,3770 -530,-5670 -2870,-10980 -6950,-15060l-18810 -18810 8730 -4380c7260,-3620 15490,-4790 23330,-3560 -900,-4730 -2450,-9360 -4610,-13670l-7590 -15190 20660 5180c13660,3410 25760,10980 34760,21630 8990,-10640 21090,-18220 34750,-21630l20660 -5180 -7600 15190c-2140,4310 -3700,8930 -4610,13670 7870,-1230 16090,-60 23330,3560l8740 4380 -18070 18070c-3480,3480 -5840,7910 -7020,12640 16730,2210 29190,8890 38800,18090l-6400 -60780 -4150 0c-9530,0 -17260,-7730 -17260,-17260 0,-9530 7730,-17260 17260,-17260l55260 0 0 -32820 -13820 0c-26690,0 -48310,-21670 -48340,-48350 -10,-3810 3090,-6890 6900,-6890 3810,0 6890,3090 6900,6890 20,19070 15460,34550 34540,34550l13130 0c-3270,-15990 -17360,-27630 -33850,-27650 -3810,0 -6900,-3090 -6900,-6900 0,-3800 3090,-6890 6900,-6890 13070,0 25510,5300 34540,14570l0 -21500 -8640 0c-20970,0 -37960,-17010 -37980,-37980 0,-3810 3090,-6890 6900,-6890l15540 0c12450,0 24030,6120 31080,16230 7060,-10110 18640,-16220 31080,-16230 3810,-10 6900,3080 6900,6890 0,3810 -3090,6900 -6900,6900 -10770,10 -20140,7120 -23170,17280l7630 0c13350,0 24170,-10830 24180,-24180 10,-3810 3100,-6890 6900,-6890 3810,0 6900,3080 6900,6890 -20,20970 -17010,37980 -37980,37980l-8640 0 0 21500c9030,-9270 21470,-14570 34540,-14570l20730 0c3800,0 6900,3090 6890,6890 -20,26680 -21650,48350 -48340,48350l-13820 0 0 32820 55270 0c9520,0 17250,7730 17250,17260 0,9530 -7730,17260 -17250,17260l-4160 0 -6720 63910c3090,60 6160,570 9120,1510 5620,-11730 17490,-19280 30590,-19300 3770,-10 7500,650 11040,1910zm-136460 36590l-1020 -1940 -8690 -82680 49310 0c3810,0 6900,-3090 6900,-6900 0,-3810 -3090,-6900 -6900,-6900l-67340 0c-1910,0 -3460,-1550 -3460,-3460 0,-1910 1550,-3460 3460,-3460l124330 0c1910,0 3450,1550 3450,3460 0,1910 -1540,3460 -3450,3460l-25900 0c-3820,0 -6910,3080 -6910,6900 0,3810 3090,6900 6910,6900l7870 0 -7060 66970c-7650,3520 -13670,9830 -16800,17650l-54700 0zm-131360 -290l-90870 0c9260,-16970 26590,-28170 44910,-28170 19640,0 37270,11050 45960,28170zm-10020 -31460l0 -4800c0,-10290 -4010,-19970 -11290,-27240l-3200 -3190c3850,-220 7790,790 11330,2560l10200 5100 0 -11400c0,-5830 -780,-11670 -2300,-17320 9440,3980 17550,10650 23320,19290l7150 10710 7160 -10710c5770,-8650 13880,-15320 23320,-19290 -1530,5650 -2310,11490 -2310,17320l0 11400 10190 -5100c3550,-1770 7500,-2710 11330,-2560l-2460 2460c-6030,6020 -9990,13880 -11400,22240 -21190,1820 -39960,13790 -50660,31770 -5150,-8620 -12140,-15840 -20380,-21240zm167900 -196180c-3040,-10160 -12400,-17280 -23180,-17280l-7640 0c3040,10170 12410,17280 23180,17280l7640 0zm15490 62170l13130 0c16500,0 30580,-11670 33850,-27650l-13130 0c-16500,0 -30570,11670 -33850,27650zm175160 -119340l-2150 8100 12740 3410c3670,980 5840,4790 4860,8450 -980,3650 -4760,5860 -8420,4880l-12750 -3420 -3190 11920c-1960,7340 2440,14960 9780,16930l10010 2680c7340,1970 14970,-2410 16930,-9760l3180 -11930 -6060 -1610c-2450,-570 -4390,-2440 -5070,-4860 -680,-2420 30,-5030 1820,-6780 1800,-1760 4410,-2410 6760,-1700l6120 1630 2160 -8080 -36720 -9860zm-1060 64060l-23240 86770 6690 1790 23240 -86760 -6690 -1800zm-40730 180970c6710,-7410 16240,-11700 26290,-11730 540,0 1090,20 1630,60 1540,-2230 2700,-4720 3400,-7350l14300 -53380 -38350 -10280 -18390 -4920 -14310 53390c-3110,11600 2790,23750 13690,28390 4360,960 8360,2950 11740,5820zm-2940 -24630c3340,890 5510,4140 5060,7570 -460,3430 -3380,6000 -6850,6000 -600,0 -1210,-80 -1790,-240 -9160,-2460 -14640,-11980 -12190,-21140l4020 -15020c970,-3660 4780,-5850 8440,-4870 3670,980 5870,4780 4890,8450l-4030 15020c-490,1840 610,3740 2450,4230z"/>
 </g>
</svg>
